<?xml version="1.0" encoding="UTF-8"?>
<svg width="187.2mm" height="120.19mm" version="1.1" viewBox="0 0 187.2 120.19" xmlns="http://www.w3.org/2000/svg" xmlns:cc="http://creativecommons.org/ns#" xmlns:dc="http://purl.org/dc/elements/1.1/" xmlns:rdf="http://www.w3.org/1999/02/22-rdf-syntax-ns#">
<defs>
<clipPath id="b" stroke-linejoin="round">
<path d="m396.82 1064.9-1.4978-4.3717-5.8602-17.104-23.091-66.729-22.741-65.056-2.7989-7.9246-13.994-39.623-0.61414-1.7389-0.52291 0.8106-6.5599 10.169-8.7465 13.156-8.3966 12.242-8.3967 11.856-8.0468 10.994-8.0468 10.628-7.6969 9.8173-7.6969 9.4718-7.6969 9.1217-7.3471 8.3761-7.3471 8.0488-7.3471 7.7176-6.9972 7.0388-6.9972 6.7318-6.9972 6.4218-6.6474 5.8108-6.6474 5.526-6.6474 5.2387-6.2975 4.6959-6.2975 4.4343-6.2975 4.1708-6.2975 3.9058-6.2975 3.6391-5.9476 3.1908-5.9476 2.9505-5.9476 2.7091-5.9476 2.4667-5.9476 2.2234-5.9476 1.9793-5.5978 1.6392-5.5978 1.4217-5.5978 1.2039-5.5978 0.9854-5.5978 0.7669-5.5978 0.5479-5.5978 0.3288-5.5978 0.1097z" clip-path="url(#a)" fill="#05ffff" stroke="#000" stroke-linecap="square" stroke-linejoin="round" stroke-width=".99213"/>
</clipPath>
<clipPath id="a" stroke-linejoin="round">
<rect x="62.01" y="162.69" width="384.46" height="1043.9" stroke-linejoin="round"/>
</clipPath>
<clipPath id="d" stroke-linejoin="round">
<circle cx="325.26" cy="863.31" r="7.2253" fill="none" stroke="#000003" stroke-linecap="square" stroke-linejoin="miter" stroke-width=".675"/>
</clipPath>
<clipPath id="c" stroke-linejoin="round">
<circle cx="415.8" cy="-3.1195" r="44.283" fill="none" stroke="#000003" stroke-linecap="square" stroke-linejoin="miter" stroke-width=".675"/>
</clipPath>
</defs>
<metadata>
<rdf:RDF>
<cc:Work rdf:about="">
<dc:format>image/svg+xml</dc:format>
<dc:type rdf:resource="http://purl.org/dc/dcmitype/StillImage"/>
<dc:title/>
</cc:Work>
</rdf:RDF>
</metadata>
<g transform="translate(48.962 -222.57)">
<path transform="matrix(.35278 0 0 .35278 -24.172 -65.34)" d="m-169.34 16.074 710.93 710.87zm0 6.66 710.93 710.87zm0 6.6599 710.93 710.87zm0 6.66 710.93 710.87zm0 6.6599 710.93 710.87zm0 6.6599 710.93 710.87zm0 6.66 710.93 710.87zm0 6.6599 710.93 710.87zm0 6.66 710.93 710.87zm0 6.6599 710.93 710.87zm0 6.6599 710.93 710.87zm0 6.66 710.93 710.87zm0 6.6599 710.93 710.87zm0 6.66 710.93 710.87zm0 6.6599 710.93 710.87zm0 6.66 710.93 710.87zm0 6.66 710.93 710.87zm0 6.6599 710.93 710.87zm0 6.66 710.93 710.87zm0 6.66 710.93 710.87zm0 6.66 710.93 710.87zm0 6.66 710.93 710.87zm0 6.66 710.93 710.87zm0 6.66 710.93 710.87zm0 6.66 710.93 710.87zm0 6.66 710.93 710.87zm0 6.66 710.93 710.87zm0 6.66 710.93 710.87zm0 6.66 710.93 710.87zm0 6.66 710.93 710.87zm0 6.6599 710.93 710.87zm0 6.66 710.93 710.87zm0 6.66 710.93 710.87zm0 6.6599 710.93 710.87zm0 6.66 710.93 710.87zm0 6.66 710.93 710.87zm0 6.6599 710.93 710.87zm0 6.66 710.93 710.87zm0 6.66 710.93 710.87zm0 6.66 710.93 710.87zm0 6.66 710.93 710.87zm0 6.66 710.93 710.87zm0 6.66 710.93 710.87zm0 6.66 710.93 710.87zm0 6.66 710.93 710.87zm0 6.66 710.93 710.87zm0 6.66 710.93 710.87zm0 6.6599 710.93 710.87zm0 6.66 710.93 710.87zm0 6.66 710.93 710.87zm0 6.6599 710.93 710.87zm0 6.66 710.93 710.87zm0 6.66 710.93 710.87zm0 6.66 710.93 710.87zm0 6.66 710.93 710.87zm0 6.6599 710.93 710.87zm0 6.66 710.93 710.87zm0 6.66 710.93 710.87zm0 6.66 710.93 710.87zm0 6.66 710.93 710.87zm0 6.66 710.93 710.87zm0 6.66 710.93 710.87zm0 6.66 710.93 710.87zm0 6.66 710.93 710.87zm0 6.66 710.93 710.87zm0 6.66 710.93 710.87zm0 6.6599 710.93 710.87zm0 6.66 710.93 710.87zm0 6.66 710.93 710.87zm0 6.6599 710.93 710.87zm0 6.66 710.93 710.87zm0 6.66 710.93 710.87zm0 6.66 710.93 710.87zm0 6.66 710.93 710.87zm0 6.66 710.93 710.87zm0 6.66 710.93 710.87zm0 6.66 710.93 710.87zm0 6.66 710.93 710.87zm0 6.66 710.93 710.87zm0 6.66 710.93 710.87zm0 6.66 710.93 710.87zm0 6.66 710.93 710.87zm0 6.66 710.93 710.87zm0 6.66 710.93 710.87zm0 6.66 710.93 710.87zm0 6.66 710.93 710.87zm0 6.66 710.93 710.87zm0 6.66 710.93 710.87zm0 6.66 710.93 710.87zm0 6.66 710.93 710.87zm0 6.66 710.93 710.87zm0 6.66 710.93 710.87zm0 6.66 710.93 710.87zm0 6.66 710.93 710.87zm0 6.66 710.93 710.87zm0 6.66 710.93 710.87zm0 6.66 710.93 710.87zm0 6.66 710.93 710.87zm0 6.66 710.93 710.87zm0 6.6599 710.93 710.87zm0 6.66 710.93 710.87zm0 6.66 710.93 710.87zm0 6.6599 710.93 710.87zm0 6.66 710.93 710.87zm0 6.66 710.93 710.87zm0 6.66 710.93 710.87zm0 6.66 710.93 710.87zm0 6.66 710.93 710.87zm0 6.66 710.93 710.87zm0 6.66 710.93 710.87zm0 6.66 710.93 710.87zm0 6.66 710.93 710.87zm0 6.66 710.93 710.87zm0 6.66 710.93 710.87zm0 6.66 710.93 710.87zm0 6.66 710.93 710.87zm0 6.66 710.93 710.87zm0 6.66 710.93 710.87zm0 6.6599 710.93 710.87zm0 6.66 710.93 710.87zm0 6.66 710.93 710.87zm0 6.6599 710.93 710.87zm0 6.66 710.93 710.87zm0 6.66 710.93 710.87zm0 6.66 710.93 710.87zm0 6.66 710.93 710.87zm0 6.66 710.93 710.87zm0 6.66 710.93 710.87zm0 6.66 710.93 710.87zm0 6.66 710.93 710.87zm0 6.66 710.93 710.87zm0 6.66 710.93 710.87zm0 6.6599 710.93 710.87zm0 6.66 710.93 710.87zm0 6.66 710.93 710.87zm0 6.6599 710.93 710.87zm0 6.66 710.93 710.87zm0 6.66 710.93 710.87zm0 6.66 710.93 710.87zm0 6.66 710.93 710.87zm0 6.6599 710.93 710.87zm0 6.66 710.93 710.87zm0 6.66 710.93 710.87zm0 6.66 710.93 710.87zm0 6.66 710.93 710.87zm0 6.66 710.93 710.87zm0 6.66 710.93 710.87zm0 6.66 710.93 710.87zm0 6.6599 710.93 710.87zm0 6.6599 710.93 710.87zm0 6.66 710.93 710.87zm0 6.6599 710.93 710.87zm0 6.66 710.93 710.87zm0 6.6599 710.93 710.87zm0 6.66 710.93 710.87zm0 6.6599 710.93 710.87zm0 6.66 710.93 710.87zm0 6.6599 710.93 710.87zm0 6.6601 710.93 710.87zm0 6.6599 710.93 710.87zm0 6.66 710.93 710.87zm0 6.6599 710.93 710.87zm0 6.66 710.93 710.87zm0 6.6599 710.93 710.87zm0 6.66 710.93 710.87zm0 6.6599 710.93 710.87zm0 6.66 710.93 710.87zm0 6.6599 710.93 710.87zm0 6.66 710.93 710.87zm0 6.6599 710.93 710.93zm0 6.66 710.93 710.87z" clip-path="url(#b)" fill="none" stroke="#000" stroke-width=".72px"/>
<path transform="matrix(.35278 0 0 .35278 -24.172 -65.34)" d="m396.82 1064.9-1.4978-4.3717-5.8602-17.104-23.091-66.729-22.741-65.056-2.7989-7.9246-13.994-39.623-0.61414-1.7389-0.52291 0.8106-6.5599 10.169-8.7465 13.156-8.3966 12.242-8.3967 11.856-8.0468 10.994-8.0468 10.628-7.6969 9.8173-7.6969 9.4718-7.6969 9.1217-7.3471 8.3761-7.3471 8.0488-7.3471 7.7176-6.9972 7.0388-6.9972 6.7318-6.9972 6.4218-6.6474 5.8108-6.6474 5.526-6.6474 5.2387-6.2975 4.6959-6.2975 4.4343-6.2975 4.1708-6.2975 3.9058-6.2975 3.6391-5.9476 3.1908-5.9476 2.9505-5.9476 2.7091-5.9476 2.4667-5.9476 2.2234-5.9476 1.9793-5.5978 1.6392-5.5978 1.4217-5.5978 1.2039-5.5978 0.9854-5.5978 0.7669-5.5978 0.5479-5.5978 0.3288-5.5978 0.1097z" clip-path="url(#a)" fill="none" stroke="#000" stroke-linecap="square" stroke-linejoin="round" stroke-width=".99213"/>
<path d="m3.8677 316.41v1.6086" fill="none" stroke="#000" stroke-width=".35983px"/>
<path d="m34.691 316.41v1.6086" fill="none" stroke="#000" stroke-width=".35983px"/>
<path d="m127.16 316.41v1.6086" fill="none" stroke="#000" stroke-width=".35983px"/>
<path d="m96.336 316.41v1.6086" fill="none" stroke="#000" stroke-width=".35983px"/>
<path d="m65.513 316.41v1.6086" fill="none" stroke="#000" stroke-width=".35983px"/>
<path d="m127.16 316.41h-123.29" fill="none" stroke="#000003" stroke-linecap="square" stroke-width=".35983"/>
<text x="2.3860302" y="323.11319" fill="#000000" font-family="Roboto" font-size="3.5278px" letter-spacing="0px" stroke-linejoin="round" stroke-width=".26458" word-spacing="0px" style="line-height:1" xml:space="preserve"><tspan x="2.3860302" y="323.11319" font-family="'Jost*'" font-size="4.9389px" stroke-linejoin="round" stroke-width=".26458">0</tspan></text>
<text x="29.670782" y="323.1181" fill="#000000" font-family="Roboto" font-size="3.5278px" letter-spacing="0px" stroke-linejoin="round" stroke-width=".26458" word-spacing="0px" style="line-height:1" xml:space="preserve"><tspan x="29.670782" y="323.1181" font-family="'Jost*'" font-size="4.9389px" stroke-linejoin="round" stroke-width=".26458">0.25</tspan></text>
<text x="61.897179" y="323.11319" fill="#000000" font-family="Roboto" font-size="3.5278px" letter-spacing="0px" stroke-linejoin="round" stroke-width=".26458" word-spacing="0px" style="line-height:1" xml:space="preserve"><tspan x="61.897179" y="323.11319" font-family="'Jost*'" font-size="4.9389px" stroke-linejoin="round" stroke-width=".26458">0.5</tspan></text>
<text x="91.422615" y="323.11319" fill="#000000" font-family="Roboto" font-size="3.5278px" letter-spacing="0px" stroke-linejoin="round" stroke-width=".26458" word-spacing="0px" style="line-height:1" xml:space="preserve"><tspan x="91.422615" y="323.11319" font-family="'Jost*'" font-size="4.9389px" stroke-linejoin="round" stroke-width=".26458">0.75</tspan></text>
<text x="126.17135" y="323.11319" fill="#000000" font-family="Roboto" font-size="3.5278px" letter-spacing="0px" stroke-linejoin="round" stroke-width=".26458" word-spacing="0px" style="line-height:1" xml:space="preserve"><tspan x="126.17135" y="323.11319" font-family="'Jost*'" font-size="4.9389px" stroke-linejoin="round" stroke-width=".26458">1</tspan></text>
<path d="m-2.2965 310.33v-75.388" fill="none" stroke="#000" stroke-linecap="square" stroke-width=".35983"/>
<path d="m-2.2965 310.33h-1.6086" fill="none" stroke="#000" stroke-width=".35983px"/>
<path d="m-2.2965 295.25h-1.6086" fill="none" stroke="#000" stroke-width=".35983px"/>
<path d="m-2.2965 280.17h-1.6086" fill="none" stroke="#000" stroke-width=".35983px"/>
<path d="m-2.2965 265.09h-1.6086" fill="none" stroke="#000" stroke-width=".35983px"/>
<path d="m-2.2965 250.02h-1.6086" fill="none" stroke="#000" stroke-width=".35983px"/>
<path d="m-2.2965 234.94h-1.6086" fill="none" stroke="#000" stroke-width=".35983px"/>
<text x="-8.258379" y="312.0538" fill="#000000" font-family="Roboto" font-size="3.5278px" letter-spacing="0px" stroke-linejoin="round" stroke-width=".26458" word-spacing="0px" style="line-height:1" xml:space="preserve"><tspan x="-8.258379" y="312.0538" font-family="'Jost*'" font-size="4.9389px" stroke-linejoin="round" stroke-width=".26458">0</tspan></text>
<text x="-15.488909" y="296.96393" fill="#000000" font-family="Roboto" font-size="3.5278px" letter-spacing="0px" stroke-linejoin="round" stroke-width=".26458" word-spacing="0px" style="line-height:1" xml:space="preserve"><tspan x="-15.488909" y="296.96393" font-family="'Jost*'" font-size="4.9389px" stroke-linejoin="round" stroke-width=".26458">0.05</tspan></text>
<text x="-14.923952" y="281.88638" fill="#000000" font-family="Roboto" font-size="3.5278px" letter-spacing="0px" stroke-linejoin="round" stroke-width=".26458" word-spacing="0px" style="line-height:1" xml:space="preserve"><tspan x="-14.923952" y="281.88638" font-family="'Jost*'" font-size="4.9389px" stroke-linejoin="round" stroke-width=".26458">0.10</tspan></text>
<text x="-14.746149" y="266.80887" fill="#000000" font-family="Roboto" font-size="3.5278px" letter-spacing="0px" stroke-linejoin="round" stroke-width=".26458" word-spacing="0px" style="line-height:1" xml:space="preserve"><tspan x="-14.746149" y="266.80887" font-family="'Jost*'" font-size="4.9389px" stroke-linejoin="round" stroke-width=".26458">0.15</tspan></text>
<text x="-15.512369" y="251.73381" fill="#000000" font-family="Roboto" font-size="3.5278px" letter-spacing="0px" stroke-linejoin="round" stroke-width=".26458" word-spacing="0px" style="line-height:1" xml:space="preserve"><tspan x="-15.512369" y="251.73381" font-family="'Jost*'" font-size="4.9389px" stroke-linejoin="round" stroke-width=".26458">0.20</tspan></text>
<text x="-15.334566" y="236.65628" fill="#000000" font-family="Roboto" font-size="3.5278px" letter-spacing="0px" stroke-linejoin="round" stroke-width=".26458" word-spacing="0px" style="line-height:1" xml:space="preserve"><tspan x="-15.334566" y="236.65628" font-family="'Jost*'" font-size="4.9389px" stroke-linejoin="round" stroke-width=".26458">0.25</tspan></text>
<text x="40.993446" y="232.6526" fill="#000000" font-family="'Jost*'" font-size="7.506px" font-weight="300" letter-spacing="0px" stroke-linejoin="round" stroke-width=".26458" text-align="center" text-anchor="middle" word-spacing="0px" style="line-height:1.1" xml:space="preserve"><tspan x="40.993446" y="232.6526" text-align="center" style="line-height:1.1">Apex at:</tspan><tspan x="40.993446" y="240.90923" text-align="center" style="line-height:1.1"><tspan font-style="italic" stroke-linejoin="round" stroke-width=".26458">q</tspan>: 0.70600</tspan><tspan x="42.119347" y="249.16585" text-align="center" style="line-height:1.1"><tspan font-style="italic" stroke-linejoin="round" stroke-width=".26458">a</tspan>: 0.23699 </tspan></text>
<path d="m89.999 238.95h-26.988" fill="none" stroke="#000" stroke-width=".15"/>
<text x="51.756691" y="337.05231" fill="#000000" font-family="Roboto" font-size="5.3614px" letter-spacing="0px" stroke-linejoin="round" stroke-width=".26458" text-align="center" text-anchor="middle" word-spacing="0px" style="line-height:1.1" xml:space="preserve"><tspan x="52.886341" y="337.05231" font-family="'Jost*'" font-size="7.506px" font-style="italic" font-weight="300" stroke-linejoin="round" stroke-width=".26458" text-align="center" text-anchor="middle" style="line-height:1.1">q = </tspan></text>
<text x="-43.903389" y="273.51715" fill="#000000" font-family="Roboto" font-size="5.3614px" letter-spacing="0px" stroke-linejoin="round" stroke-width=".26458" text-align="center" text-anchor="middle" word-spacing="0px" style="line-height:1.1" xml:space="preserve"><tspan x="-42.773739" y="273.51715" font-family="'Jost*'" font-size="7.506px" font-style="italic" font-weight="300" stroke-linejoin="round" stroke-width=".26458" text-align="center" text-anchor="middle" style="line-height:1.1">a = </tspan></text>
<path d="m3.8677 310.33 95.176-75.388" fill="none" stroke="#000" stroke-width=".26458px"/>
<text x="67.662132" y="333.51337" fill="#000000" font-family="Roboto" font-size="5.3614px" letter-spacing="0px" stroke-linejoin="round" stroke-width=".26458" text-align="center" text-anchor="middle" word-spacing="0px" style="line-height:1.1" xml:space="preserve"><tspan x="67.955818" y="333.51337" dx="0.34572223" font-family="'Jost*'" font-size="7.506px" font-weight="300" letter-spacing=".58738px" stroke-linejoin="round" stroke-width=".26458" text-align="center" text-anchor="middle" style="line-height:1.1">2<tspan font-style="italic" stroke-linejoin="round" stroke-width=".26458">eV</tspan></tspan></text>
<text x="67.502617" y="342.65457" fill="#000000" font-family="Roboto" font-size="7.4992px" letter-spacing="0px" stroke-linejoin="round" stroke-width=".26458" text-align="center" text-anchor="middle" word-spacing="0px" style="line-height:1.1" xml:space="preserve"><tspan x="67.502617" y="342.65457" font-family="'Jost*'" font-weight="300" stroke-linejoin="round" stroke-width=".26458"><tspan font-style="italic">mr</tspan><tspan dx="0.44409731" baseline-shift="super" font-family="'Jost*'" font-size="4.441px" font-weight="normal">2</tspan><tspan dx="-0.44409731" font-family="Roboto" font-style="italic" font-weight="300">ω</tspan><tspan baseline-shift="super" font-family="'Jost*'" font-size="4.441px" font-weight="normal">2</tspan></tspan></text>
<text x="-27.935045" y="270.56079" fill="#000000" font-family="Roboto" font-size="5.3614px" letter-spacing="0px" stroke-linejoin="round" stroke-width=".26458" text-align="center" text-anchor="middle" word-spacing="0px" style="line-height:1.1" xml:space="preserve"><tspan x="-27.641357" y="270.56079" font-family="'Jost*'" font-size="7.506px" font-weight="300" letter-spacing=".58738px" stroke-linejoin="round" stroke-width=".26458" text-align="center" text-anchor="middle" style="line-height:1.1"><tspan font-style="italic" stroke-linejoin="round" stroke-width=".26458"><tspan font-style="normal" stroke-linejoin="round" stroke-width=".26458">4</tspan>eU</tspan></tspan></text>
<path d="m-35.775 271.66h15.974" fill="none" stroke="#000" stroke-width=".23812"/>
<text x="-27.847544" y="279.18604" fill="#000000" font-family="Roboto" font-size="7.4992px" letter-spacing="0px" stroke-linejoin="round" stroke-width=".26458" text-align="center" text-anchor="middle" word-spacing="0px" style="line-height:1.1" xml:space="preserve"><tspan x="-27.847544" y="279.18604" font-family="'Jost*'" font-weight="300" stroke-linejoin="round" stroke-width=".26458"><tspan font-style="italic">mr</tspan><tspan dx="0.44409728" baseline-shift="super" font-family="'Jost*'" font-size="4.441px" font-weight="normal">2</tspan><tspan dx="-0.44409728" font-family="Roboto" font-style="italic" font-weight="300">ω</tspan><tspan baseline-shift="super" font-family="'Jost*'" font-size="4.441px" font-weight="normal">2</tspan></tspan></text>
<path d="m59.575 335.13h15.974" fill="none" stroke="#000" stroke-width=".23812"/>
<text transform="rotate(-38.22)" x="-149.99094" y="245.50768" fill="#000000" font-family="Roboto" font-size="5.3614px" letter-spacing="0px" stroke-linejoin="round" stroke-width=".26458" text-align="center" text-anchor="middle" word-spacing="0px" style="line-height:1.1" xml:space="preserve"><tspan x="-148.86504" y="245.50768" font-family="'Jost*'" font-size="7.506px" font-weight="300" stroke-linejoin="round" stroke-width=".26458" text-align="center" text-anchor="middle" style="line-height:1.1">Mass scan line </tspan></text>
<circle cx="122.49" cy="238.32" r="15.622" fill="none" stroke="#000003" stroke-linecap="square" stroke-width=".23812"/>
<path transform="matrix(2.1621 0 0 2.1621 -580.76 -1628.3)" d="m335.23 887.84-2.7989-7.9246-5.5978-15.849-0.61414-1.7389-0.52291 0.8106-6.5599 10.169-8.7465 13.156" clip-path="url(#d)" fill="none" stroke="#000" stroke-linecap="square" stroke-linejoin="round" stroke-width=".16188"/>
<path transform="matrix(.35278 0 0 .35278 -24.192 239.42)" d="m191.4 182.9 269.79-213.7" clip-path="url(#c)" fill="none" stroke="#000" stroke-width=".75px"/>
<circle cx="131.54" cy="234.07" r=".67799"/>
<circle cx="116.14" cy="246.27" r=".67799"/>
<circle cx="123.84" cy="240.17" r=".67799"/>
<text x="107.52425" y="240.44969" fill="#000000" font-family="Roboto" font-size="3.5278px" letter-spacing="0px" stroke-linejoin="round" stroke-width=".26458" word-spacing="0px" style="line-height:1" xml:space="preserve"><tspan x="107.52425" y="240.44969" font-family="'Jost*'" font-size="4.9389px" stroke-linejoin="round" stroke-width=".26458">m+1</tspan></text>
<text x="116.13215" y="234.67694" fill="#000000" font-family="Roboto" font-size="3.5278px" letter-spacing="0px" stroke-linejoin="round" stroke-width=".26458" word-spacing="0px" style="line-height:1" xml:space="preserve"><tspan x="116.13215" y="234.67694" font-family="'Jost*'" font-size="4.9389px" stroke-linejoin="round" stroke-width=".26458">m</tspan></text>
<text x="122.57735" y="229.70374" fill="#000000" font-family="Roboto" font-size="3.5278px" letter-spacing="0px" stroke-linejoin="round" stroke-width=".26458" word-spacing="0px" style="line-height:1" xml:space="preserve"><tspan x="122.57735" y="229.70374" font-family="'Jost*'" font-size="4.9389px" stroke-linejoin="round" stroke-width=".26458">m−1</tspan></text>
<path d="m123.16 239.45-3.944-3.9439" fill="none" stroke="#000" stroke-width=".26458px"/>
<path d="m130.55 233.24-3.2331-3.2331" fill="none" stroke="#000" stroke-width=".26458px"/>
<path d="m115.34 245.41-4.0184-4.0184" fill="none" stroke="#000" stroke-width=".26458px"/>
<path d="m92.145 237.96 22.943-13.403" fill="none" stroke="#000" stroke-dasharray="0.79375, 0.79375" stroke-width=".26458"/>
<path d="m93.534 243.59 24.125 9.5841" fill="none" stroke="#000" stroke-dasharray="0.79375, 0.79375" stroke-width=".26458"/>
<rect x="68.8" y="285.69" width="21.941" height="8.8555" ry="0" fill="#fff" stroke="#000" stroke-linecap="square" stroke-width=".23812"/>
<text x="79.744637" y="292.94885" fill="#000000" font-family="Roboto" font-size="5.3614px" letter-spacing="0px" stroke-linejoin="round" stroke-width=".26458" text-align="center" text-anchor="middle" word-spacing="0px" style="line-height:1.1" xml:space="preserve"><tspan x="79.744637" y="292.94885" font-family="'Jost*'" font-size="7.506px" font-weight="300" stroke-linejoin="round" stroke-width=".26458" text-align="center" text-anchor="middle" style="line-height:1.1">Stable</tspan></text>
</g>
</svg>
