<?xml version="1.0" encoding="UTF-8"?>
<svg width="278.12mm" height="160.38mm" version="1.1" viewBox="0 0 278.12 160.38" xmlns="http://www.w3.org/2000/svg" xmlns:cc="http://creativecommons.org/ns#" xmlns:dc="http://purl.org/dc/elements/1.1/" xmlns:rdf="http://www.w3.org/1999/02/22-rdf-syntax-ns#">
<defs>
<clipPath id="b">
<path d="m943.47-1480.6-103.41 34.48-0.0415 16.475 103.41-34.479zm-8e-3 37.628-103.41 34.479-0.0421 16.475 103.41-34.479z" fill="#fff" stroke="#000" stroke-dasharray="1.4, 1.4" stroke-width=".35"/>
</clipPath>
<marker id="a" overflow="visible" orient="auto">
<path transform="scale(.6)" d="m8.7186 4.0337-10.926-4.0177 10.926-4.0177c-1.7455 2.3721-1.7354 5.6175-6e-7 8.0354z" fill="#00000a" fill-rule="evenodd" stroke="#00000a" stroke-linejoin="round" stroke-width=".625"/>
</marker>
<clipPath id="f">
<path d="m653.7-964.57c-3.3907-0.0266-5.7097 2.3685-5.7097 5.9578-2.1e-4 4.5549 3.6921 9.4691 8.2471 10.976l0.0419-16.479c-0.014 0-0.028-0.013-0.0419-0.0151-0.74557-0.2468-1.4876-0.39156-2.2061-0.42995-0.11157-6e-3 -0.22188-9e-3 -0.33126-0.01zm-18.409 12.659a9.7237 6.9949 49.697 0 0-6.0415 5.948 9.7237 6.9949 49.697 0 0 8.2475 10.976 9.7237 6.9949 49.697 0 0 8.2471-5.518 9.7237 6.9949 49.697 0 0-8.2471-10.976 9.7237 6.9949 49.697 0 0-2.2061-0.42942zm18.401 24.969c-3.3907-0.0266-5.7092 2.3684-5.7092 5.9578-2.4e-4 4.5548 3.6921 9.469 8.247 10.976l0.0414-16.479c-0.014 0-0.0274-0.0119-0.0414-0.0151-0.74554-0.24681-1.4876-0.39167-2.2061-0.42995-0.11155-6e-3 -0.22238-9e-3 -0.33176-0.01z" fill="#fff" stroke="#000" stroke-dashoffset="7.5402" stroke-linecap="round" stroke-linejoin="round" stroke-width=".35"/>
</clipPath>
<marker id="n" overflow="visible" orient="auto">
<path transform="scale(-.6)" d="m8.7186 4.0337-10.926-4.0177 10.926-4.0177c-1.7455 2.3721-1.7354 5.6175-6e-7 8.0354z" fill="#00000a" fill-rule="evenodd" stroke="#00000a" stroke-linejoin="round" stroke-width=".625"/>
</marker>
<marker id="j" overflow="visible" orient="auto">
<path transform="scale(-.6)" d="m8.7186 4.0337-10.926-4.0177 10.926-4.0177c-1.7455 2.3721-1.7354 5.6175-6e-7 8.0354z" fill="#00000a" fill-rule="evenodd" stroke="#00000a" stroke-linejoin="round" stroke-width=".625"/>
</marker>
<marker id="i" overflow="visible" orient="auto">
<path transform="scale(-.6)" d="m8.7186 4.0337-10.926-4.0177 10.926-4.0177c-1.7455 2.3721-1.7354 5.6175-6e-7 8.0354z" fill="#00000a" fill-rule="evenodd" stroke="#00000a" stroke-linejoin="round" stroke-width=".625"/>
</marker>
<marker id="h" overflow="visible" orient="auto">
<path transform="scale(-.6)" d="m8.7186 4.0337-10.926-4.0177 10.926-4.0177c-1.7455 2.3721-1.7354 5.6175-6e-7 8.0354z" fill="#00000a" fill-rule="evenodd" stroke="#00000a" stroke-linejoin="round" stroke-width=".625"/>
</marker>
<marker id="g" overflow="visible" orient="auto">
<path transform="matrix(-.3 0 0 -.3 .69 0)" d="m8.7186 4.0337-10.926-4.0177 10.926-4.0177c-1.7455 2.3721-1.7354 5.6175-6e-7 8.0354z" fill-rule="evenodd" stroke="#000" stroke-linejoin="round" stroke-width=".625"/>
</marker>
<clipPath id="e">
<path d="m629.38-895.23h19.852l4.2333 23.139h-24.106z" fill="#fff" stroke="#000" stroke-width=".26458px"/>
</clipPath>
<clipPath id="c">
<path d="m758.21-889.1 3.1834 17.4h-6.3668z" fill="#fff" stroke="#000" stroke-width=".26458px"/>
</clipPath>
<marker id="m" overflow="visible" orient="auto">
<path transform="scale(-.6)" d="m8.7186 4.0337-10.926-4.0177 10.926-4.0177c-1.7455 2.3721-1.7354 5.6175-6e-7 8.0354z" fill="#00000a" fill-rule="evenodd" stroke="#00000a" stroke-linejoin="round" stroke-width=".625"/>
</marker>
<clipPath id="d">
<path d="m725.08-895.08h-19.852l-4.2333 23.139h24.106z" fill="#fff" stroke="#000" stroke-width=".26458px"/>
</clipPath>
<marker id="l" overflow="visible" orient="auto">
<path transform="scale(-.6)" d="m8.7186 4.0337-10.926-4.0177 10.926-4.0177c-1.7455 2.3721-1.7354 5.6175-6e-7 8.0354z" fill="#00000a" fill-rule="evenodd" stroke="#00000a" stroke-linejoin="round" stroke-width=".625"/>
</marker>
<marker id="k" overflow="visible" orient="auto">
<path transform="scale(-.6)" d="m8.7186 4.0337-10.926-4.0177 10.926-4.0177c-1.7455 2.3721-1.7354 5.6175-6e-7 8.0354z" fill="#00000a" fill-rule="evenodd" stroke="#00000a" stroke-linejoin="round" stroke-width=".625"/>
</marker>
</defs>
<metadata>
<rdf:RDF>
<cc:Work rdf:about="">
<dc:format>image/svg+xml</dc:format>
<dc:type rdf:resource="http://purl.org/dc/dcmitype/StillImage"/>
<dc:title/>
</cc:Work>
</rdf:RDF>
</metadata>
<g transform="translate(-71.095 166.37)">
<g transform="translate(29.047 172.62)">
<path d="m299.59-307.17a1.7199 1.2371 49.748 0 1-1.4582 0.9763 1.7199 1.2371 49.748 0 1-1.4582-1.9418 1.7199 1.2371 49.748 0 1 1.4582-0.9763 1.7199 1.2371 49.748 0 1 1.4582 1.9418z" fill="#fff" stroke="#000" stroke-dashoffset="7.5402" stroke-linecap="round" stroke-linejoin="round" stroke-width=".35"/>
<path d="m298.16-298.14c-0.74561-0.2466-1.4878-0.3909-2.2062-0.429l6e-5 1e-4c-0.88715-0.044-1.7262 0.075-2.4822 0.3519h1.1e-4l-32.484 10.791-70.969 23.663" fill="#fff" stroke="#000" stroke-linejoin="round" stroke-width=".35"/>
<path d="m194.76-263.66c-0.0139-0.01-0.0275-0.01-0.0415-0.016-0.74556-0.2468-1.4877-0.3914-2.2062-0.4297-3.5701-0.1901-6.041 2.2426-6.041 5.9477-2.4e-4 4.5549 3.6922 9.4692 8.2472 10.976v-0.01 2e-4" fill="#fff" stroke="#000" stroke-dashoffset="7.5402" stroke-linecap="round" stroke-linejoin="round" stroke-width=".35"/>
<path d="m298.12-281.66-103.41 34.479 0.042-16.475 103.41-34.479z" fill="none" stroke="#000" stroke-dasharray="1.4, 1.4" stroke-width=".35"/>
<path d="m298.12-281.66-103.41 34.479 0.042-16.475 103.41-34.479z" fill="none" stroke="#000" stroke-dasharray="1.4, 1.4" stroke-width=".35"/>
<path d="m298.12-281.66-103.41 34.479 0.042-16.475 103.41-34.479z" fill="#fff" stroke="#000" stroke-dasharray="1.4, 1.4" stroke-width=".35"/>
<path d="m194.76-263.66c-0.0139-0.01-0.0275-0.01-0.0415-0.016-0.74556-0.2468-1.4877-0.3914-2.2062-0.4297-3.5701-0.1901-6.041 2.2426-6.041 5.9477-2.4e-4 4.5549 3.6922 9.4692 8.2472 10.976v-0.01 2e-4" fill="none" stroke="#000" stroke-dashoffset="7.5402" stroke-linecap="round" stroke-linejoin="round" stroke-width=".35"/>
<path d="m298.16-298.14c-0.74561-0.2466-1.4878-0.3909-2.2062-0.429l6e-5 1e-4c-0.88715-0.044-1.7262 0.075-2.4822 0.3519h1.1e-4l-32.484 10.791-70.969 23.663" fill="none" stroke="#000" stroke-linecap="round" stroke-linejoin="round" stroke-width=".35"/>
<path d="m184.23-277.67a9.7237 6.9949 49.697 0 1-8.2472 5.5184 9.7237 6.9949 49.697 0 1-8.2472-10.976 9.7237 6.9949 49.697 0 1 8.2472-5.5184 9.7237 6.9949 49.697 0 1 8.2472 10.976z" fill="#fff" stroke="#000" stroke-dashoffset="7.5402" stroke-linecap="round" stroke-linejoin="round" stroke-width=".35"/>
<path d="m180.73-272.08 26.04-8.6821 36.143-12.05 41.528-13.857 3e-3 0.01-3e-3 -0.01c2.0368-0.885 3.2324-2.9072 3.2347-5.4714 2.3e-4 -4.5549-3.6922-9.4692-8.2472-10.976-0.74563-0.2465-1.4878-0.3909-2.2062-0.429l7e-5 1e-4c-0.88716-0.044-1.7262 0.075-2.4822 0.352l1e-4 -1e-4 -32.484 10.791-70.969 23.663" fill="none" stroke="#000" stroke-dasharray="0.7, 0.35" stroke-linejoin="round" stroke-width=".35"/>
<path d="m184.23-277.67a9.7237 6.9949 49.697 0 1-8.2472 5.5183 9.7237 6.9949 49.697 0 1-8.2472-10.976 9.7237 6.9949 49.697 0 1 8.2472-5.5184 9.7237 6.9949 49.697 0 1 8.2472 10.976z" fill="#fff" stroke="#000" stroke-dashoffset="7.5402" stroke-linecap="round" stroke-linejoin="round" stroke-width=".35"/>
<path d="m298.16-335.77c-0.74561-0.2466-1.4878-0.391-2.2062-0.4291l6e-5 1e-4c-0.88715-0.044-1.7262 0.075-2.4822 0.3519h1.1e-4l-32.484 10.791-70.969 23.663" fill="#fff" stroke="#000" stroke-linejoin="round" stroke-width=".35"/>
<path d="m194.76-301.28c-0.0139-0.01-0.0275-0.01-0.0415-0.016-0.74556-0.2468-1.4877-0.3913-2.2062-0.4297-3.5701-0.1901-6.041 2.2426-6.041 5.9477-2.4e-4 4.5549 3.6922 9.4693 8.2472 10.976v-0.01 1e-4" fill="#fff" stroke="#000" stroke-dashoffset="7.5402" stroke-linecap="round" stroke-linejoin="round" stroke-width=".35"/>
<path d="m298.13-319.29-103.41 34.479 0.042-16.475 103.41-34.479z" fill="none" stroke="#000" stroke-dasharray="1.4, 1.4" stroke-width=".35"/>
<path d="m298.13-319.29-103.41 34.479 0.042-16.475 103.41-34.479z" fill="none" stroke="#000" stroke-dasharray="1.4, 1.4" stroke-width=".35"/>
<path d="m298.13-319.29-103.41 34.479 0.042-16.475 103.41-34.479z" fill="#fff" stroke="#000" stroke-dasharray="1.4, 1.4" stroke-width=".35"/>
<path d="m194.76-301.28c-0.0139-0.01-0.0275-0.01-0.0415-0.016-0.74556-0.2468-1.4877-0.3913-2.2062-0.4297-3.5701-0.1901-6.041 2.2426-6.041 5.9477-2.4e-4 4.5549 3.6922 9.4693 8.2472 10.976v-0.01 1e-4" fill="none" stroke="#000" stroke-dashoffset="7.5402" stroke-linecap="round" stroke-linejoin="round" stroke-width=".35"/>
<path d="m298.16-335.77c-0.74561-0.2466-1.4878-0.391-2.2062-0.4291l6e-5 1e-4c-0.88715-0.044-1.7262 0.075-2.4822 0.3519h1.1e-4l-32.484 10.791-70.969 23.663" fill="none" stroke="#000" stroke-linecap="round" stroke-linejoin="round" stroke-width=".35"/>
<path d="m298.16-298.14c-0.74561-0.2465-1.4878-0.3909-2.2062-0.429l6e-5 1e-4c-0.88715-0.044-1.7262 0.075-2.4822 0.3519h1e-4l-32.484 10.791-70.969 23.663" fill="#fff" stroke="#000" stroke-linejoin="round" stroke-width=".35"/>
<path d="m194.76-263.66c-0.0139 0-0.0276-0.012-0.0415-0.015-0.74555-0.2468-1.4877-0.3914-2.2062-0.4297-3.5701-0.1901-6.041 2.2426-6.041 5.9477-2.3e-4 4.5548 3.6922 9.4692 8.2472 10.976v1e-4" fill="#fff" stroke="#000" stroke-dashoffset="7.5402" stroke-linecap="round" stroke-linejoin="round" stroke-width=".35"/>
<path d="m298.12-281.66-103.41 34.479 0.042-16.475 103.41-34.479z" fill="none" stroke="#000" stroke-dasharray="1.4, 1.4" stroke-width=".35"/>
<path d="m298.12-281.66-103.41 34.479 0.042-16.475 103.41-34.479z" fill="none" stroke="#000" stroke-width=".35"/>
<path d="m194.76-263.66c-0.0139 0-0.0276-0.012-0.0415-0.015-0.74555-0.2468-1.4877-0.3914-2.2062-0.4297-3.5701-0.1901-6.041 2.2426-6.041 5.9477-2.3e-4 4.5548 3.6922 9.4692 8.2472 10.976v1e-4" fill="none" stroke="#000" stroke-dashoffset="7.5402" stroke-linecap="round" stroke-linejoin="round" stroke-width=".35"/>
<path d="m298.16-298.14c-0.74561-0.2465-1.4878-0.3909-2.2062-0.429l6e-5 1e-4c-0.88715-0.044-1.7262 0.075-2.4822 0.3519h1e-4l-32.484 10.791-70.969 23.663" fill="none" stroke="#000" stroke-linecap="round" stroke-linejoin="round" stroke-width=".35"/>
<path d="m298.16-335.77c-0.74561-0.2466-1.4878-0.391-2.2062-0.4291l6e-5 1e-4c-0.88715-0.044-1.7262 0.075-2.4822 0.3519h1.1e-4l-32.484 10.791-70.969 23.663" fill="#fff" stroke="#000" stroke-linejoin="round" stroke-width=".35"/>
<path d="m194.76-301.28c-0.0139 0-0.0276-0.013-0.0415-0.015-0.74555-0.2468-1.4877-0.3913-2.2062-0.4297-3.5701-0.1901-6.041 2.2426-6.041 5.9477-2.3e-4 4.5549 3.6922 9.4693 8.2472 10.976v2e-4" fill="#fff" stroke="#000" stroke-dashoffset="7.5402" stroke-linecap="round" stroke-linejoin="round" stroke-width=".35"/>
<path d="m298.13-319.29-103.41 34.479 0.042-16.475 103.41-34.479z" fill="none" stroke="#000" stroke-dasharray="1.4, 1.4" stroke-width=".35"/>
<path d="m298.13-319.29-103.41 34.479 0.042-16.475 103.41-34.479z" fill="none" stroke="#000" stroke-width=".35"/>
<path d="m194.76-301.28c-0.0139 0-0.0276-0.013-0.0415-0.015-0.74555-0.2468-1.4877-0.3913-2.2062-0.4297-3.5701-0.1901-6.041 2.2426-6.041 5.9477-2.3e-4 4.5549 3.6922 9.4693 8.2472 10.976v2e-4" fill="none" stroke="#000" stroke-dashoffset="7.5402" stroke-linecap="round" stroke-linejoin="round" stroke-width=".35"/>
<path d="m298.16-335.77c-0.74561-0.2466-1.4878-0.391-2.2062-0.4291l6e-5 1e-4c-0.88715-0.044-1.7262 0.075-2.4822 0.3519h1.1e-4l-32.484 10.791-70.969 23.663" fill="none" stroke="#000" stroke-linecap="round" stroke-linejoin="round" stroke-width=".35"/>
<path transform="translate(-645.3 1144.8)" d="m834.29-1593.4 113.2 113.2zm0 2.3574 113.2 113.2zm0 2.3575 113.2 113.2zm0 2.357 113.2 113.2zm0 2.3575 113.2 113.2zm0 2.3575 113.2 113.2zm0 2.3574 113.2 113.2zm0 2.3575 113.2 113.2zm0 2.357 113.2 113.2zm0 2.3574 113.2 113.2zm0 2.3575 113.2 113.2zm0 2.3575 113.2 113.2zm0 2.357 113.2 113.2zm0 2.3574 113.2 113.2zm0 2.3575 113.2 113.2zm0 2.3575 113.2 113.2zm0 2.3575 113.2 113.2zm0 2.3569 113.2 113.2zm0 2.3575 113.2 113.2zm0 2.3575 113.2 113.2zm0 2.3575 113.2 113.2zm0 2.3575 113.2 113.2zm0 2.3569 113.2 113.2zm0 2.358 113.2 113.2zm0 2.357 113.2 113.2zm0 2.3575 113.2 113.2zm0 2.3569 113.2 113.2zm0 2.3575 113.2 113.2zm0 2.3575 113.2 113.2zm0 2.3575 113.2 113.2zm0 2.3569 113.2 113.2zm0 2.3575 113.2 113.2zm0 2.3575 113.2 113.2zm0 2.3574 113.2 113.2zm0 2.357 113.2 113.2zm0 2.3575 113.2 113.2zm0 2.3575 113.2 113.2zm0 2.3575 113.2 113.2zm0 2.3574 113.2 113.2zm0 2.357 113.2 113.2zm0 2.3575 113.2 113.2zm0 2.3575 113.2 113.2zm0 2.3574 113.2 113.2zm0 2.357 113.2 113.2zm0 2.358 113.2 113.2zm0 2.3569 113.2 113.2zm0 2.3575 113.2 113.2zm0 2.357 113.2 113.2zm0 2.3575 113.2 113.2zm0 2.3574 113.2 113.2zm0 2.3575 113.2 113.2zm0 2.3575 113.2 113.2zm0 2.3575 113.2 113.2zm0 2.357 113.2 113.2zm0 2.3574 113.2 113.2zm0 2.3575 113.2 113.2zm0 2.357 113.2 113.2zm0 2.3575 113.2 113.2zm0 2.3574 113.2 113.2zm0 2.3575 113.2 113.2zm0 2.357 113.2 113.2zm0 2.3574 113.2 113.2zm0 2.3575 113.2 113.2zm0 2.3575 113.2 113.2zm0 2.3575 113.2 113.2zm0 2.3575 113.2 113.2zm0 2.3574 113.2 113.2zm0 2.357 113.2 113.2zm0 2.3575 113.2 113.2zm0 2.3575 113.2 113.2zm0 2.3569 113.2 113.2zm0 2.3575 113.2 113.2zm0 2.3575 113.2 113.2zm0 2.3575 113.2 113.2zm0 2.3574 113.2 113.2zm0 2.357 113.2 113.2zm0 2.3575 113.2 113.2zm0 2.3575 113.2 113.2zm0 2.3574 113.2 113.2zm0 2.3575 113.2 113.2zm0 2.357 113.2 113.2zm0 2.3574 113.2 113.2zm0 2.3575 113.2 113.2zm0 2.3575 113.2 113.2zm0 2.357 113.2 113.2zm0 2.3574 113.2 113.2z" clip-path="url(#b)" fill="none" stroke="#000" stroke-width=".25"/>
<circle cx="129.66" cy="-298.58" r="8.1249" fill="none" stroke="#000" stroke-linecap="round" stroke-linejoin="round" stroke-width=".35"/>
<circle cx="99.232" cy="-329.01" r="8.1249" fill="none" stroke="#000" stroke-linecap="round" stroke-linejoin="round" stroke-width=".35"/>
<circle cx="99.232" cy="-268.15" r="8.1249" fill="none" stroke="#000" stroke-linecap="round" stroke-linejoin="round" stroke-width=".35"/>
<text x="68.832001" y="-295.42447" fill="#000000" font-family="'Jost*'" font-size="12.39px" font-weight="300" letter-spacing="0px" stroke-width=".26458" text-align="center" text-anchor="middle" word-spacing="0px" style="font-feature-settings:normal;font-variant-caps:normal;font-variant-ligatures:normal;font-variant-numeric:normal;line-height:1" xml:space="preserve"><tspan x="68.832001" y="-295.42447" font-family="'Jost*'" font-weight="200" stroke-width=".26458">+</tspan></text>
<text x="129.69528" y="-295.42447" fill="#000000" font-family="'Jost*'" font-size="12.39px" font-weight="300" letter-spacing="0px" stroke-width=".26458" text-align="center" text-anchor="middle" word-spacing="0px" style="font-feature-settings:normal;font-variant-caps:normal;font-variant-ligatures:normal;font-variant-numeric:normal;line-height:1" xml:space="preserve"><tspan x="129.69528" y="-295.42447" font-family="'Jost*'" font-weight="200" stroke-width=".26458">+</tspan></text>
<text x="99.23111" y="-325.78629" fill="#000000" font-family="'Jost*'" font-size="12.39px" font-weight="300" letter-spacing="0px" stroke-width=".26458" text-align="center" text-anchor="middle" word-spacing="0px" style="font-feature-settings:normal;font-variant-caps:normal;font-variant-ligatures:normal;font-variant-numeric:normal;line-height:1" xml:space="preserve"><tspan x="99.23111" y="-325.78629" font-family="'Jost*'" font-weight="200" stroke-width=".26458">−</tspan></text>
<text x="99.231049" y="-264.92624" fill="#000000" font-family="'Jost*'" font-size="12.39px" font-weight="300" letter-spacing="0px" stroke-width=".26458" text-align="center" text-anchor="middle" word-spacing="0px" style="font-feature-settings:normal;font-variant-caps:normal;font-variant-ligatures:normal;font-variant-numeric:normal;line-height:1" xml:space="preserve"><tspan x="99.231049" y="-264.92624" font-family="'Jost*'" font-weight="200" stroke-width=".26458">−</tspan></text>
<g transform="translate(-445.1 672.3)" fill="none">
<path d="m719.61-1011.1-66.763 22.26" marker-start="url(#a)" stroke="#00000a" stroke-linejoin="round" stroke-width=".25"/>
<path d="m718.8-1010.8-65.949 21.989" stroke="#000" stroke-width=".4"/>
</g>
<text transform="rotate(-18.313)" x="332.82108" y="-236.85716" fill="#000000" font-family="'Jost*'" font-size="7.506px" font-weight="300" letter-spacing="0px" stroke-width=".26458" text-align="center" text-anchor="middle" word-spacing="0px" style="font-feature-settings:normal;font-variant-caps:normal;font-variant-ligatures:normal;font-variant-numeric:normal;line-height:1" xml:space="preserve"><tspan x="332.82108" y="-236.85716" stroke-width=".26458">Ion direction</tspan></text>
<path transform="translate(-461.52 662.83)" d="m686.07-1039.4-76.162 76.162zm0 1.0955-76.162 76.162zm0 1.0961-76.162 76.162zm0 1.096-76.162 76.162zm0 1.0961-76.162 76.162zm0 1.096-76.162 76.162zm0 1.0961-76.162 76.162zm0 1.0955-76.162 76.162zm0 1.0966-76.162 76.162zm0 1.0961-76.162 76.162zm0 1.0955-76.162 76.162zm0 1.0961-76.162 76.162zm0 1.096-76.162 76.162zm0 1.0956-76.162 76.162zm0 1.096-76.162 76.162zm0 1.0961-76.162 76.162zm0 1.096-76.162 76.162zm0 1.0961-76.162 76.162zm0 1.096-76.162 76.162zm0 1.0956-76.162 76.162zm0 1.096-76.162 76.162zm0 1.0961-76.162 76.162zm0 1.0961-76.162 76.162zm0 1.096-76.162 76.162zm0 1.0961-76.162 76.162zm0 1.0955-76.162 76.162zm0 1.0961-76.162 76.162zm0 1.096-76.162 76.162zm0 1.0961-76.162 76.162zm0 1.096-76.162 76.162zm0 1.0961-76.162 76.162zm0 1.0955-76.162 76.162zm0 1.0961-76.162 76.162zm0 1.096-76.162 76.162zm0 1.0961-76.162 76.162zm0 1.0961-76.162 76.162zm0 1.0955-76.162 76.162zm0 1.0961-76.162 76.162zm0 1.0961-76.162 76.162zm0 1.096-76.162 76.162zm0 1.0961-76.162 76.162zm0 1.0961-76.162 76.162zm0 1.096-76.162 76.162zm0 1.0955-76.162 76.162zm0 1.0961-76.162 76.162zm0 1.0961-76.162 76.162zm0 1.0961-76.162 76.162zm0 1.096-76.162 76.162zm0 1.0955-76.162 76.162zm0 1.0961-76.162 76.162zm0 1.0961-76.162 76.162zm0 1.096-76.162 76.162zm0 1.0961-76.162 76.162zm0 1.0961-76.162 76.162zm0 1.0955-76.162 76.162zm0 1.0961-76.162 76.162zm0 1.096-76.162 76.162zm0 1.0961-76.162 76.162zm0 1.0961-76.162 76.162zm0 1.0955-76.162 76.163zm0 1.096-76.162 76.162zm0 1.0961-76.162 76.162zm0 1.0961-76.162 76.162zm0 1.0961-76.162 76.162zm0 1.096-76.162 76.162zm0 1.0955-76.162 76.162zm0 1.0961-76.162 76.162zm0 1.0961-76.162 76.162zm0 1.096-76.162 76.162zm0 1.0961-76.162 76.162zm0 1.0961-76.162 76.162zm0 1.0955-76.162 76.162zm0 1.0961-76.162 76.162zm0 1.096-76.162 76.162zm0 1.0961-76.162 76.162zm0 1.0961-76.162 76.162zm0 1.096-76.162 76.162zm0 1.0956-76.162 76.162zm0 1.0966-76.162 76.162zm0 1.0955-76.162 76.162zm0 1.0961-76.162 76.162zm0 1.096-76.162 76.162zm0 1.0961-76.162 76.162zm0 1.0955-76.162 76.162zm0 1.0961-76.162 76.162zm0 1.0961-76.162 76.162zm0 1.096-76.162 76.162zm0 1.0961-76.162 76.162zm0 1.0961-76.162 76.162zm0 1.0955-76.162 76.162zm0 1.0966-76.162 76.162zm0 1.0961-76.162 76.162zm0 1.0955-76.162 76.162zm0 1.0961-76.162 76.162zm0 1.0955-76.162 76.163zm0 1.096-76.162 76.162zm0 1.0961-76.162 76.162zm0 1.0961-76.162 76.162zm0 1.096-76.162 76.162zm0 1.0961-76.162 76.162zm0 1.0955-76.162 76.162zm0 1.0961-76.162 76.162zm0 1.0961-76.162 76.162zm0 1.096-76.162 76.162zm0 1.0961-76.162 76.162zm0 1.0961-76.162 76.162zm0 1.0955-76.162 76.162zm0 1.096-76.162 76.162zm0 1.0961-76.162 76.162zm0 1.0961-76.162 76.162zm0 1.0961-76.162 76.162zm0 1.096-76.162 76.162zm0 1.0961-76.162 76.162zm0 1.0961-76.162 76.162zm0 1.0955-76.162 76.162zm0 1.096-76.162 76.162zm0 1.0961-76.162 76.162zm0 1.0961-76.162 76.162zm0 1.0955-76.162 76.162zm0 1.0961-76.162 76.162zm0 1.096-76.162 76.162zm0 1.0961-76.162 76.162zm0 1.0961-76.162 76.162zm0 1.096-76.162 76.162zm0 1.0956-76.162 76.162zm0 1.096-76.162 76.162zm0 1.0961-76.162 76.162zm0 1.0961-76.162 76.162zm0 1.096-76.162 76.162zm0 1.0955-76.162 76.162z" clip-path="url(#f)" fill="none" stroke="#000" stroke-width=".25"/>
<path d="m97.737-233.27v-4.2239" fill="none" stroke="#000" stroke-width=".35"/>
<path d="m99.324-231.99v-6.7856" fill="none" stroke="#000" stroke-width=".35"/>
<path d="m102.5-231.99v-6.7856" fill="none" stroke="#000" stroke-width=".35"/>
<path d="m100.91-233.27v-4.2239" fill="none" stroke="#000" stroke-width=".35"/>
<text transform="rotate(90)" x="-239.0894" y="-104.57486" fill="#000000" font-family="Roboto" font-size="5.3614px" letter-spacing="0px" stroke-width=".26458" word-spacing="0px" style="line-height:1" xml:space="preserve"><tspan x="-239.0894" y="-104.57486" font-family="'Jost*'" font-size="4.2333px" font-weight="500" stroke-width=".26458" text-align="center" text-anchor="middle">+</tspan></text>
<text transform="scale(-1)" x="-97.124603" y="241.06651" fill="#000000" font-family="Roboto" font-size="5.3614px" letter-spacing="0px" stroke-width=".26458" word-spacing="0px" style="line-height:1" xml:space="preserve"><tspan x="-97.124603" y="241.06651" stroke-width=".26458">−</tspan></text>
<g transform="translate(-459.13 662.65)" fill="none" stroke="#000" stroke-width=".35">
<path d="m564.45-874.02v-6.7856"/>
<path d="m562.86-874.02v-6.7856"/>
<g transform="translate(-5.5645 -.32814)" stroke-linecap="round">
<circle cx="560.63" cy="-877.28" r="3.4611" stroke-linejoin="round"/>
<path d="m558.19-877.27c2.3643-3.9622 2.7711 3.9282 4.8948 0"/>
</g>
<path d="m558.53-877.61h4.3333"/>
</g>
<path d="m97.562-235.38h-14.053v20.423h8.9707" fill="none" stroke="#000" stroke-width=".35"/>
<path d="m105.32-214.96h10.388v-20.423h-13.212" fill="none" stroke="#000" stroke-width=".35"/>
<path d="m91.107-329.01h-38.17l-1e-5 60.86h38.17" fill="none" stroke="#000" stroke-width=".35"/>
<path d="m68.802-290.46v7.3264l60.86-2e-5v-7.3264" fill="none" stroke="#000" stroke-width=".35"/>
<path d="m83.509-235.38v-32.775" fill="none" stroke="#000" stroke-width=".35"/>
<path d="m115.71-235.38v-47.753" fill="none" stroke="#000" stroke-width=".35"/>
<text x="116.69449" y="-188.22124" fill="#000000" font-family="'Jost*'" font-size="7.506px" font-weight="300" letter-spacing="0px" stroke-width=".26458" text-align="center" text-anchor="middle" word-spacing="0px" style="font-feature-settings:normal;font-variant-caps:normal;font-variant-ligatures:normal;font-variant-numeric:normal;line-height:1" xml:space="preserve"><tspan x="116.69449" y="-188.22124">Radio frequency</tspan><tspan x="116.69449" y="-180.71518">source</tspan></text>
<text x="62.299408" y="-188.22124" fill="#000000" font-family="'Jost*'" font-size="7.506px" font-weight="300" letter-spacing="0px" stroke-width=".26458" text-align="center" text-anchor="middle" word-spacing="0px" style="font-feature-settings:normal;font-variant-caps:normal;font-variant-ligatures:normal;font-variant-numeric:normal;line-height:1" xml:space="preserve"><tspan x="62.299408" y="-188.22124">Direct current</tspan><tspan x="62.299408" y="-180.71518">source</tspan></text>
<ellipse cx="99.232" cy="-298.58" rx="2.7596" ry="7.811" fill="none" stroke="#000" stroke-linecap="round" stroke-linejoin="round" stroke-width=".35"/>
<ellipse transform="rotate(-90)" cx="298.58" cy="99.232" rx="2.7596" ry="7.811" fill="none" stroke="#000" stroke-dasharray="0.35, 1.05" stroke-linecap="round" stroke-linejoin="round" stroke-width=".35"/>
<circle cx="68.802" cy="-298.58" r="8.1249" fill="none" stroke="#000" stroke-linecap="round" stroke-linejoin="round" stroke-width=".35"/>
<path d="m79.673-298.58h6.0893" fill="none" marker-end="url(#n)" stroke="#00000a" stroke-linejoin="round" stroke-width=".25"/>
<path d="m79.585-298.58h5.8264" fill="none" stroke="#000" stroke-width=".4"/>
<path d="m118.79-298.58h-6.0893" fill="none" marker-end="url(#j)" stroke="#00000a" stroke-linejoin="round" stroke-width=".25"/>
<path d="m118.88-298.58h-5.8264" fill="none" stroke="#000" stroke-width=".4"/>
<g transform="rotate(180 331.05 -651.66)" fill="none">
<path d="m562.86-991.56v6.0893" marker-end="url(#i)" stroke="#00000a" stroke-linejoin="round" stroke-width=".25"/>
<path d="m562.86-991.64v5.8264" stroke="#000" stroke-width=".4"/>
</g>
<g transform="matrix(1 0 0 -1 -463.63 -1237.8)" fill="none">
<path d="m562.86-952.44v-6.0893" marker-end="url(#h)" stroke="#00000a" stroke-linejoin="round" stroke-width=".25"/>
<path d="m562.86-952.35v-5.8264" stroke="#000" stroke-width=".4"/>
</g>
<path d="m194.83-273.15s1.7581-2.8426 3.2313-3.1941c1.1005-0.26258 2.1307 1.3018 3.2313 1.0393 1.4731-0.35147 1.7581-2.8426 3.2313-3.194 1.1005-0.26258 2.1307 1.3018 3.2313 1.0393 1.4731-0.35148 1.7581-2.8426 3.2313-3.1941 1.1005-0.26258 2.1307 1.3018 3.2313 1.0393 1.4731-0.35147 1.7581-2.8426 3.2313-3.194 1.1005-0.26258 2.1307 1.3018 3.2313 1.0393 1.4731-0.35148 1.7581-2.8426 3.2313-3.194 1.1005-0.2626 2.1307 1.3018 3.2313 1.0392 1.4731-0.3514 1.7581-2.8425 3.2313-3.194 1.1005-0.2626 2.1307 1.3018 3.2313 1.0392 1.4731-0.3514 1.7581-2.8425 3.2313-3.194 1.1005-0.2626 2.1307 1.3018 3.2313 1.0393 1.4731-0.3515 1.7581-2.8426 3.2313-3.1941 1.1005-0.2626 2.1307 1.3019 3.2313 1.0393 1.4731-0.3515 1.7581-2.8426 3.2313-3.1941 1.1005-0.2626 2.1307 1.3019 3.2313 1.0393 1.4731-0.3515 1.7581-2.8426 3.2313-3.1941 1.1005-0.2625 2.1307 1.3019 3.2313 1.0393 1.4731-0.3515 1.7581-2.8426 3.2313-3.194 1.1005-0.2626 2.1307 1.3018 3.2313 1.0392 1.4731-0.3515 1.7581-2.8426 3.2313-3.194 1.1005-0.2626 2.1307 1.3018 3.2313 1.0392 1.4731-0.3514 1.7581-2.8425 3.2313-3.194 1.1005-0.2626 2.1307 1.3018 3.2313 1.0393 1.4731-0.3515 1.7581-2.8426 3.2313-3.1941 1.1005-0.2626 2.1307 1.3018 3.2313 1.0393 1.4731-0.3515 1.7581-2.8426 3.2313-3.1941 1.1005-0.2626 2.1307 1.3019 3.2313 1.0393 0.73657-0.17575 1.1761-0.8864 1.6156-1.597" fill="none" marker-end="url(#g)" stroke="#000" stroke-linecap="round" stroke-width=".5"/>
<path d="m196.19-273.72a1.7199 1.2371 49.748 0 1-1.4582 0.9763 1.7199 1.2371 49.748 0 1-1.4582-1.9418 1.7199 1.2371 49.748 0 1 1.4582-0.9763 1.7199 1.2371 49.748 0 1 1.4582 1.9418z" fill="#fff" stroke="#000" stroke-dashoffset="7.5402" stroke-linecap="round" stroke-linejoin="round" stroke-width=".35"/>
<path d="m183.16-245.4 1e-5 -17.221 11.578-11.578" fill="none" stroke="#000" stroke-width=".25"/>
<path d="m307.6-245.4 3e-5 -52.791-9.4612-9.4612" fill="none" stroke="#000" stroke-width=".25"/>
<path d="m250.83-303.52a1.7029 2.375 39.823 0 1-2.006 2.6882 1.7029 2.375 39.823 0 1-2.0059-1.3441 1.7029 2.375 39.823 0 1 2.0059-2.6882 1.7029 2.375 39.823 0 1 2.006 1.3441z" fill="#fff" stroke="#000" stroke-dashoffset="13.228" stroke-linecap="round" stroke-linejoin="round" stroke-miterlimit="3.9091" stroke-width=".35" style="paint-order:normal"/>
<path d="m195.83-274.99s1.7581-2.8426 3.2313-3.1941c1.1005-0.26258 2.1307 3.4185 3.2313 3.1559 1.4731-0.35147 1.7581-6.0176 3.2313-6.369 1.1005-0.26258 2.1307 5.5352 3.2313 5.2726 1.4731-0.35148 1.7581-7.6051 3.2312-7.9566 1.1005-0.26258 2.1307 7.6518 3.2313 7.3893 1.4732-0.35147 1.7581-10.78 3.2313-11.132 1.1005-0.26258 2.1307 9.7685 3.2313 9.5059 1.4731-0.35148 1.7581-12.368 3.2313-12.719 1.1005-0.2626 2.1307 11.356 3.2312 11.093 1.4732-0.3514 1.7581-13.426 3.2313-13.777 1.1005-0.2626 2.1307 12.414 3.2313 12.152 1.4731-0.3514 1.7581-15.013 3.2313-15.365 1.1005-0.2626 2.1307 14.002 3.2313 13.739 1.4731-0.3515 1.7581-16.072 3.2312-16.423 1.1005-0.2626 2.1307 15.06 3.2313 14.798 1.4731-0.3515 1.4289-15.885 1.297-18.026" fill="none" stroke="#000" stroke-dasharray="0.35, 1.05" stroke-linecap="round" stroke-width=".35"/>
<path d="m249.58-303.1a0.64094 0.89391 39.823 0 1-0.75502 1.0118 0.64094 0.89391 39.823 0 1-0.75498-0.5059 0.64094 0.89391 39.823 0 1 0.75498-1.0118 0.64094 0.89391 39.823 0 1 0.75502 0.5059z" style="paint-order:normal"/>
<path d="m112.64-197.32 1e-5 -5.6454-6.8154-6.8154" fill="none" stroke="#000" stroke-width=".25"/>
<path d="m62.578-197.32v-17.831l19.014-19.014" fill="none" stroke="#000" stroke-width=".25"/>
<path d="m120.78-322.2 3e-5 3.0576-15.29 15.29" fill="none" stroke="#000" stroke-width=".25"/>
<text x="140.61313" y="-331.77609" fill="#000000" font-family="'Jost*'" font-size="7.506px" font-weight="300" letter-spacing="0px" stroke-width=".26458" text-align="center" text-anchor="middle" word-spacing="0px" style="font-feature-settings:normal;font-variant-caps:normal;font-variant-ligatures:normal;font-variant-numeric:normal;line-height:1" xml:space="preserve"><tspan x="140.61313" y="-331.77609">Ion packet shape</tspan><tspan x="140.61313" y="-324.27005">and future shape</tspan></text>
<path d="m144.12-252.81v-32.303l-6.8154-6.8154" fill="none" stroke="#000" stroke-width=".25"/>
<text x="143.71841" y="-244.87334" fill="#000000" font-family="'Jost*'" font-size="7.506px" font-weight="300" letter-spacing="0px" stroke-width=".26458" text-align="center" text-anchor="middle" word-spacing="0px" style="font-feature-settings:normal;font-variant-caps:normal;font-variant-ligatures:normal;font-variant-numeric:normal;line-height:1" xml:space="preserve"><tspan x="143.71841" y="-244.87334">Positive</tspan><tspan x="143.71841" y="-237.36728">electrode</tspan></text>
<text x="183.03073" y="-237.39574" fill="#000000" font-family="'Jost*'" font-size="7.506px" font-weight="300" letter-spacing="0px" stroke-width=".26458" text-align="center" text-anchor="middle" word-spacing="0px" style="font-feature-settings:normal;font-variant-caps:normal;font-variant-ligatures:normal;font-variant-numeric:normal;line-height:1" xml:space="preserve"><tspan x="183.03073" y="-237.39574">From ion</tspan><tspan x="183.03073" y="-229.88968">source</tspan></text>
<text x="307.58054" y="-237.39574" fill="#000000" font-family="'Jost*'" font-size="7.506px" font-weight="300" letter-spacing="0px" stroke-width=".26458" text-align="center" text-anchor="middle" word-spacing="0px" style="font-feature-settings:normal;font-variant-caps:normal;font-variant-ligatures:normal;font-variant-numeric:normal;line-height:1" xml:space="preserve"><tspan x="307.58054" y="-237.39574">To ion</tspan><tspan x="307.58054" y="-229.88968">detector</tspan></text>
<path d="m258.38-245.4 4e-5 -47.9-9.4612-9.4612" fill="none" stroke="#000" stroke-width=".25"/>
<path d="m282.55-266.85 3e-5 -23.157-9.4612-9.4612" fill="none" stroke="#000" stroke-width=".25"/>
<path d="m231.71-245.4 4e-5 -28.428-9.4612-9.4612" fill="none" stroke="#000" stroke-width=".25"/>
<text x="226.37259" y="-237.2567" fill="#000000" font-family="'Jost*'" font-size="7.506px" font-weight="300" letter-spacing="0px" stroke-width=".26458" text-align="center" text-anchor="middle" word-spacing="0px" style="font-feature-settings:normal;font-variant-caps:normal;font-variant-ligatures:normal;font-variant-numeric:normal;line-height:1" xml:space="preserve"><tspan x="226.37259" y="-237.2567">Unstable</tspan><tspan x="226.37259" y="-229.75064">trajectory</tspan></text>
<text x="282.12369" y="-258.87564" fill="#000000" font-family="'Jost*'" font-size="7.506px" font-weight="300" letter-spacing="0px" stroke-width=".26458" text-align="center" text-anchor="middle" word-spacing="0px" style="font-feature-settings:normal;font-variant-caps:normal;font-variant-ligatures:normal;font-variant-numeric:normal;line-height:1" xml:space="preserve"><tspan x="282.12369" y="-258.87564">Stable </tspan><tspan x="282.12369" y="-251.3696">trajectory</tspan></text>
<text x="258.1575" y="-237.32103" fill="#000000" font-family="'Jost*'" font-size="7.506px" font-weight="300" letter-spacing="0px" stroke-width=".26458" text-align="center" text-anchor="middle" word-spacing="0px" style="font-feature-settings:normal;font-variant-caps:normal;font-variant-ligatures:normal;font-variant-numeric:normal;line-height:1" xml:space="preserve"><tspan x="258.1575" y="-237.32103">Ion</tspan><tspan x="258.1575" y="-229.81497">impact</tspan></text>
<text x="187.95346" y="-180.67491" fill="#000000" font-family="'Jost*'" font-size="7.506px" font-weight="300" letter-spacing="0px" stroke-width=".26458" text-align="center" text-anchor="middle" word-spacing="0px" style="font-feature-settings:normal;font-variant-caps:normal;font-variant-ligatures:normal;font-variant-numeric:normal;line-height:1" xml:space="preserve"><tspan x="187.95346" y="-180.67491" stroke-width=".26458">Low-pass filter</tspan></text>
<text x="242.43887" y="-180.52202" fill="#000000" font-family="'Jost*'" font-size="7.506px" font-weight="300" letter-spacing="0px" stroke-width=".26458" text-align="center" text-anchor="middle" word-spacing="0px" style="font-feature-settings:normal;font-variant-caps:normal;font-variant-ligatures:normal;font-variant-numeric:normal;line-height:1" xml:space="preserve"><tspan x="242.43887" y="-180.52202" stroke-width=".26458">High-pass filter</tspan></text>
<text x="296.92435" y="-180.25743" fill="#000000" font-family="'Jost*'" font-size="7.506px" font-weight="300" letter-spacing="0px" stroke-width=".26458" text-align="center" text-anchor="middle" word-spacing="0px" style="font-feature-settings:normal;font-variant-caps:normal;font-variant-ligatures:normal;font-variant-numeric:normal;line-height:1" xml:space="preserve"><tspan x="296.92435" y="-180.25743" stroke-width=".26458">Band-pass filter</tspan></text>
<g transform="translate(-462.04 682.53)" stroke="#000">
<path d="m630.24-899.59v24.982" fill="none" stroke-width=".26458px"/>
<path d="m630.22-874.59h41.862" fill="none" stroke-width=".26458px"/>
<path d="m630.24-897.73h19.852l4.2333 23.139h-24.106z" fill="#fff" stroke-width=".26458px"/>
<path transform="translate(.86039 -2.493)" d="m655.28-921.55-28.537 28.537zm0 1.0955-28.537 28.537zm0 1.0961-28.537 28.537zm0 1.096-28.537 28.537zm0 1.0961-28.537 28.537zm0 1.096-28.537 28.537zm0 1.0961-28.537 28.537zm0 1.0955-28.537 28.537zm0 1.0966-28.537 28.537zm0 1.0961-28.537 28.537zm0 1.0955-28.537 28.537zm0 1.0961-28.537 28.537zm0 1.096-28.537 28.537zm0 1.0956-28.537 28.537zm0 1.096-28.537 28.537zm0 1.0961-28.537 28.537zm0 1.096-28.537 28.537zm0 1.0961-28.537 28.537zm0 1.096-28.537 28.537zm0 1.0956-28.537 28.537zm0 1.096-28.537 28.537zm0 1.0961-28.537 28.537zm0 1.0961-28.537 28.537zm0 1.096-28.537 28.537zm0 1.0961-28.537 28.537zm0 1.0955-28.537 28.537zm0 1.0961-28.537 28.537zm0 1.096-28.537 28.537zm0 1.0961-28.537 28.537zm0 1.096-28.537 28.537zm0 1.0961-28.537 28.537zm0 1.0955-28.537 28.537zm0 1.0961-28.537 28.537zm0 1.096-28.537 28.537zm0 1.0961-28.537 28.537zm0 1.0961-28.537 28.537zm0 1.0955-28.537 28.537zm0 1.096-28.537 28.537zm0 1.0961-28.537 28.537zm0 1.096-28.537 28.537zm0 1.0961-28.537 28.537zm0 1.0961-28.537 28.537zm0 1.096-28.537 28.537zm0 1.0956-28.537 28.537zm0 1.096-28.537 28.537zm0 1.0961-28.537 28.537zm0 1.096-28.537 28.537zm0 1.0961-28.537 28.537zm0 1.0955-28.537 28.537z" clip-path="url(#e)" fill="none" stroke-width=".25"/>
</g>
<g transform="translate(-460.99 682.29)" fill="none" stroke="#000">
<path d="m737.29-899.33v24.982" stroke-width=".26458px"/>
<path d="m737.29-874.34h41.862" stroke-linecap="square" stroke-width=".26458px"/>
<path d="m779.13-897.48h-19.852l-4.2333 23.139h24.106z" stroke-linecap="square" stroke-width=".26458px"/>
<path d="m737.31-897.48h19.852l4.2333 23.139h-24.106z" stroke-width=".26458px"/>
<path transform="translate(0 -2.6458)" d="m770.91-917.8-28.537 28.537zm0 1.0955-28.537 28.537zm0 1.0961-28.537 28.537zm0 1.096-28.537 28.537zm0 1.0961-28.537 28.537zm0 1.096-28.537 28.537zm0 1.0961-28.537 28.537zm0 1.0955-28.537 28.537zm0 1.0966-28.537 28.537zm0 1.0961-28.537 28.537zm0 1.0955-28.537 28.537zm0 1.0961-28.537 28.537zm0 1.096-28.537 28.537zm0 1.0956-28.537 28.537zm0 1.096-28.537 28.537zm0 1.0961-28.537 28.537zm0 1.096-28.537 28.537zm0 1.0961-28.537 28.537zm0 1.096-28.537 28.537zm0 1.0956-28.537 28.537zm0 1.096-28.537 28.537zm0 1.0961-28.537 28.537zm0 1.0961-28.537 28.537zm0 1.096-28.537 28.537zm0 1.0961-28.537 28.537zm0 1.0955-28.537 28.537zm0 1.0961-28.537 28.537zm0 1.096-28.537 28.537zm0 1.0961-28.537 28.537zm0 1.096-28.537 28.537zm0 1.0961-28.537 28.537zm0 1.0955-28.537 28.537zm0 1.0961-28.537 28.537zm0 1.096-28.537 28.537zm0 1.0961-28.537 28.537zm0 1.0961-28.537 28.537zm0 1.0955-28.537 28.537zm0 1.096-28.537 28.537zm0 1.0961-28.537 28.537zm0 1.096-28.537 28.537zm0 1.0961-28.537 28.537zm0 1.0961-28.537 28.537zm0 1.096-28.537 28.537zm0 1.0956-28.537 28.537zm0 1.096-28.537 28.537zm0 1.0961-28.537 28.537zm0 1.096-28.537 28.537zm0 1.0961-28.537 28.537zm0 1.0955-28.537 28.537z" clip-path="url(#c)" stroke-width=".25"/>
</g>
<path d="m169.23-333.58h7.1768" fill="none" stroke="#000" stroke-width=".5"/>
<path d="m169.48-326.08h6.9784" fill="none" stroke="#000" stroke-dasharray="0.5, 1.5" stroke-linecap="round" stroke-width=".5"/>
<text x="173.56174" y="-187.91069" fill="#000000" font-family="Roboto" font-size="5.3614px" letter-spacing="-.023812px" stroke-linejoin="round" stroke-width=".26458" text-align="center" text-anchor="middle" word-spacing="0px" style="line-height:1.1" xml:space="preserve"><tspan x="173.54984" y="-187.91069" font-family="'Jost*'" font-size="4.5861px" font-style="italic" letter-spacing="-.023812px" stroke-linejoin="round" stroke-width=".26458" text-align="center" text-anchor="middle" style="line-height:1.1">m/z</tspan></text>
<text transform="rotate(-90)" x="203.78252" y="165.89664" fill="#000000" font-family="Roboto" font-size="5.3614px" letter-spacing="-.023812px" stroke-linejoin="round" stroke-width=".26458" text-align="center" text-anchor="middle" word-spacing="0px" style="line-height:1.1" xml:space="preserve"><tspan x="203.77061" y="165.89664" font-family="'Jost*'" font-size="4.5861px" letter-spacing="-.023812px" stroke-linejoin="round" stroke-width=".26458" text-align="center" text-anchor="middle" style="line-height:1.1">Transmission</tspan></text>
<path d="m178.56-189.46h6.0893" fill="none" marker-end="url(#m)" stroke="#00000a" stroke-linejoin="round" stroke-width=".25"/>
<path d="m178.47-189.46h5.8264" fill="none" stroke="#000" stroke-width=".4"/>
<g transform="translate(-461.03 682.53)" stroke="#000">
<path d="m683.23-899.57v24.982" fill="none" stroke-width=".26458px"/>
<path d="m683.23-874.59h41.862" fill="none" stroke-linecap="square" stroke-width=".26458px"/>
<path d="m725.08-897.73h-19.852l-4.2333 23.139h24.106z" fill="#fff" stroke-width=".26458px"/>
<path transform="translate(0 -2.6458)" d="m728.08-922.23-28.537 28.537zm0 1.0955-28.537 28.537zm0 1.0961-28.537 28.537zm0 1.096-28.537 28.537zm0 1.0961-28.537 28.537zm0 1.096-28.537 28.537zm0 1.0961-28.537 28.537zm0 1.0955-28.537 28.537zm0 1.0966-28.537 28.537zm0 1.0961-28.537 28.537zm0 1.0955-28.537 28.537zm0 1.0961-28.537 28.537zm0 1.096-28.537 28.537zm0 1.0956-28.537 28.537zm0 1.096-28.537 28.537zm0 1.0961-28.537 28.537zm0 1.096-28.537 28.537zm0 1.0961-28.537 28.537zm0 1.096-28.537 28.537zm0 1.0956-28.537 28.537zm0 1.096-28.537 28.537zm0 1.0961-28.537 28.537zm0 1.0961-28.537 28.537zm0 1.096-28.537 28.537zm0 1.0961-28.537 28.537zm0 1.0955-28.537 28.537zm0 1.0961-28.537 28.537zm0 1.096-28.537 28.537zm0 1.0961-28.537 28.537zm0 1.096-28.537 28.537zm0 1.0961-28.537 28.537zm0 1.0955-28.537 28.537zm0 1.0961-28.537 28.537zm0 1.096-28.537 28.537zm0 1.0961-28.537 28.537zm0 1.0961-28.537 28.537zm0 1.0955-28.537 28.537zm0 1.096-28.537 28.537zm0 1.0961-28.537 28.537zm0 1.096-28.537 28.537zm0 1.0961-28.537 28.537zm0 1.0961-28.537 28.537zm0 1.096-28.537 28.537zm0 1.0956-28.537 28.537zm0 1.096-28.537 28.537zm0 1.0961-28.537 28.537zm0 1.096-28.537 28.537zm0 1.0961-28.537 28.537zm0 1.0955-28.537 28.537z" clip-path="url(#d)" fill="none" stroke-width=".25"/>
<path d="m683.23-874.59h41.862" fill="none" stroke-linecap="square" stroke-width=".265"/>
</g>
<text x="227.1102" y="-187.91069" fill="#000000" font-family="Roboto" font-size="5.3614px" letter-spacing="-.023812px" stroke-linejoin="round" stroke-width=".26458" text-align="center" text-anchor="middle" word-spacing="0px" style="line-height:1.1" xml:space="preserve"><tspan x="227.0983" y="-187.91069" font-family="'Jost*'" font-size="4.5861px" font-style="italic" letter-spacing="-.023812px" stroke-linejoin="round" stroke-width=".26458" text-align="center" text-anchor="middle" style="line-height:1.1">m/z</tspan></text>
<path d="m232.11-189.46h6.0893" fill="none" marker-end="url(#l)" stroke="#00000a" stroke-linejoin="round" stroke-width=".25"/>
<path d="m232.02-189.46h5.8264" fill="none" stroke="#000" stroke-width=".4"/>
<text x="281.20877" y="-187.91051" fill="#000000" font-family="Roboto" font-size="5.3614px" letter-spacing="-.023812px" stroke-linejoin="round" stroke-width=".26458" text-align="center" text-anchor="middle" word-spacing="0px" style="line-height:1.1" xml:space="preserve"><tspan x="281.19687" y="-187.91051" font-family="'Jost*'" font-size="4.5861px" font-style="italic" letter-spacing="-.023812px" stroke-linejoin="round" stroke-width=".26458" text-align="center" text-anchor="middle" style="line-height:1.1">m/z</tspan></text>
<path d="m286.21-189.46h6.0893" fill="none" marker-end="url(#k)" stroke="#00000a" stroke-linejoin="round" stroke-width=".25"/>
<path d="m286.12-189.46h5.8264" fill="none" stroke="#000" stroke-width=".4"/>
<path d="m150.08-252.81v-2.1403l18.986-18.986" fill="none" stroke="#000" stroke-width=".25"/>
<text transform="skewY(18.155)" x="175.98398" y="-334.15347" fill="#000000" font-family="'Jost*'" font-size="15.51px" font-weight="300" letter-spacing="0px" stroke-width=".26458" text-align="center" text-anchor="middle" word-spacing="0px" style="font-feature-settings:normal;font-variant-caps:normal;font-variant-ligatures:normal;font-variant-numeric:normal;line-height:1" xml:space="preserve"><tspan x="175.98398" y="-334.15347" font-family="'Jost*'" font-weight="300" stroke-width=".26458">+</tspan></text>
<path d="m191.29-294.66v0.76356l3.4897 1.1446v-0.76409z" style="font-feature-settings:normal;font-variant-caps:normal;font-variant-ligatures:normal;font-variant-numeric:normal"/>
<path d="m191.29-256.71v0.76356l3.4897 1.1446v-0.76409z" style="font-feature-settings:normal;font-variant-caps:normal;font-variant-ligatures:normal;font-variant-numeric:normal"/>
</g>
</g>
</svg>
